<?xml version="1.0" standalone="no"?>
<!DOCTYPE svg PUBLIC "-//W3C//DTD SVG 20010904//EN"
 "http://www.w3.org/TR/2001/REC-SVG-20010904/DTD/svg10.dtd">
<svg version="1.0" xmlns="http://www.w3.org/2000/svg"
 width="400.000000pt" height="400.000000pt" viewBox="0 0 400.000000 400.000000"
 preserveAspectRatio="xMidYMid meet">
<metadata>
Created by potrace 1.11, written by Peter Selinger 2001-2013
</metadata>
<g transform="translate(0.000000,400.000000) scale(0.100000,-0.100000)"
fill="#000000" stroke="none">
<path d="M0 2000 l0 -2000 305 0 305 0 0 251 c0 225 2 251 16 245 9 -3 51 -6
95 -6 l79 0 0 -245 0 -245 399 0 c220 0 402 3 404 8 3 4 2 21 0 39 l-5 32 -92
3 -91 3 -3 80 c-4 133 3 125 -107 125 -91 0 -95 1 -101 24 -3 13 -5 37 -3 52
1 16 1 53 1 82 l-2 52 -95 0 c-111 0 -108 -3 -103 120 l3 75 300 5 300 5 3
203 2 202 -200 0 -200 0 0 105 0 105 -100 0 -99 0 -3 102 -3 102 -96 -1 -96
-2 -6 157 c-4 86 -7 273 -7 415 l0 257 99 0 99 0 7 205 7 205 94 0 94 0 0
-205 0 -205 200 0 200 0 0 205 0 205 -100 0 -100 0 0 105 0 105 100 0 99 0 3
103 3 102 98 3 97 3 0 99 0 100 100 0 100 0 0 105 0 105 303 -2 302 -3 3 -102
3 -103 94 0 94 0 3 -102 3 -103 90 -1 c50 -1 96 -2 103 -3 9 -1 12 -28 12
-101 l0 -100 100 0 100 0 0 -567 c0 -313 -3 -638 -7 -725 l-6 -156 -71 -1
c-39 0 -83 0 -98 0 l-28 -1 0 -100 0 -100 -100 0 -100 0 0 -105 0 -105 -200 0
-200 0 0 -205 0 -205 300 0 300 0 0 -100 0 -99 -97 -3 -98 -3 -3 -102 -3 -103
-99 0 -100 0 0 -105 0 -105 -100 0 -100 0 0 -40 0 -40 405 0 405 0 0 245 0
245 43 1 c23 0 66 1 95 2 l52 2 0 -247 0 -248 300 0 300 0 0 2000 0 2000
-2000 0 -2000 0 0 -2000z"/>
<path d="M2400 2555 l0 -205 200 0 200 0 0 205 0 205 -200 0 -200 0 0 -205z"/>
<path d="M1410 1525 l0 -205 195 0 195 0 0 100 0 100 -100 0 -100 0 0 105 0
105 -95 0 -95 0 0 -205z"/>
</g>
</svg>
